<?xml version="1.0" standalone="yes"?>
<svg xmlns="http://www.w3.org/2000/svg" width="206" height="208">
<path style="fill:#010101; stroke:none;" d="M0 0L0 84L1 84C4.32637 43.2744 48.644 2.73723 89 1L62 0L0 0z"/>
<path style="fill:#212121; stroke:none;" d="M58 9L58 11L56 10L56 12L54 11L54 13L49 16L43 20C35.3383 21.2439 20.2439 36.3393 19 44L17 47L14 48L15 50L11 57L9 57L10 59L8 59L7 66C1.38425 70.2173 0.137261 83.3498 0 90L42 90C47.1091 90 55.0395 91.4884 59.7762 89.3966C66.2833 86.5229 70.532 73.6534 77 68.9275C92.2721 57.7688 103.464 63.1061 120 62L138.011 77.5756L146.213 89.3966L164 90L206 90C206 52.2166 170.522 18.3007 141 6C133.565 2.90224 124.87 1.96747 117 0C104.309 -3.17268 85.2724 0.1819 74 3C69.5936 4.10159 61.0252 9.75632 58 9z"/>
<path style="fill:#010101; stroke:none;" d="M117 0L117 1C157.365 2.73761 201.676 43.2992 205 84L206 84L206 0L117 0z"/>
<path style="fill:#232323; stroke:none;" d="M69 5L70 6L69 5M59 9L60 10L59 9M146 9L147 10L146 9M57 10L58 11L57 10M55 11L56 12L55 11M53 12L54 13L53 12M152 12L153 13L152 12M48 15L49 16L48 15M42 19L43 20L42 19M39 21L40 22L39 21M38 22L39 23L38 22M32 27L33 28L32 27M173 27L174 28L173 27M31 28L32 29L31 28M174 28L175 29L174 28M30 29L31 30L30 29M175 29L176 30L175 29M29 30L30 31L29 30M176 30L177 31L176 30M28 31L29 32L28 31M177 31L178 32L177 31M27 32L28 33L27 32M178 32L179 33L178 32M26 33L27 34L26 33M179 33L180 34L179 33M25 34L26 35L25 34M21 39L22 40L21 39M20 40L21 41L20 40M18 43L19 44L18 43M16 46L17 47L16 46M14 49L15 50L14 49M11 54L12 55L11 54M10 56L11 57L10 56M9 58L10 59L9 58M8 60L9 61L8 60z"/>
<path style="fill:#010101; stroke:none;" d="M0 90L0 118L41 118C46.2583 118 53.9684 116.589 58.8951 118.603C64.1752 120.762 66.5792 129.792 70.3009 133.961C78.4987 143.142 90.8512 147.998 103 147.998C115.15 147.998 127.499 143.141 135.699 133.961C139.354 129.868 141.984 120.715 147.108 118.603C152.018 116.58 159.754 118 165 118L206 118L206 90L165 90C159.742 90 152.032 91.4108 147.105 89.3966C141.825 87.2379 139.421 78.2075 135.699 74.0394C127.501 64.8582 115.149 60.0015 103 60.0015C90.9473 60.0015 78.436 64.9319 70.3009 74.0394C66.6455 78.1317 64.016 87.2851 58.892 89.3966C53.9822 91.4198 46.2455 90 41 90L0 90z"/>
<path style="fill:#232323; stroke:none;" d="M119 62L120 63L119 62M6 65L7 66L6 65M2 77L3 78L2 77M139 78L140 79L139 78z"/>
<path style="fill:#212121; stroke:none;" d="M97.0147 79.5394C65.4 86.8497 77.2414 135.372 109 128.481C140.866 121.568 128.556 72.246 97.0147 79.5394z"/>
<path style="fill:#232323; stroke:none;" d="M92 81L93 82L92 81M86 85L87 86L86 85M119 85L120 86L119 85M85 86L86 87L85 86M120 86L121 87L120 86M84 87L85 88L84 87M121 87L122 88L121 87M79 96L80 97L79 96z"/>
<path style="fill:#212121; stroke:none;" d="M0 118C0.446321 139.624 12.7575 160.817 27.2886 176.075C31.9803 181.001 38.9502 189.36 46 190L47 193L49 192L56 196L56 198L58 197L65 200C72.2232 209.618 96.3384 208.001 107 208C153.973 207.997 204.982 167.335 206 118C187.15 118 162.045 113.666 144 119L145 121L142 127L126 143L124 142C111.043 154.536 94.0083 143.558 80 143L71.3194 134.921L59.8472 118.477L42 118L0 118z"/>
<path style="fill:#232323; stroke:none;" d="M144 120L145 121L144 120z"/>
<path style="fill:#010101; stroke:none;" d="M0 124L0 208L89 208L89 207C56.1183 205.585 25.2991 179.832 10.3094 152C5.50391 143.077 4.28381 132.897 0 124M205 124C201.674 164.726 157.356 205.263 117 207L117 208L206 208L206 150L205 124z"/>
<path style="fill:#232323; stroke:none;" d="M141 126L142 127L141 126M95 127L96 128L95 127M139 129L140 130L139 129M136 133L137 134L136 133M70 134L71 135L70 134M135 134L136 135L135 134M71 135L72 136L71 135M134 135L135 136L134 135M72 136L73 137L72 136M133 136L134 137L133 136M73 137L74 138L73 137M132 137L133 138L132 137M77 140L78 141L77 140M128 140L129 141L128 140M80 142L81 143L80 142M125 142L126 143L125 142M123 143L124 144L123 143M121 144L122 145L121 144M116 146L117 147L116 146M20 167L21 168L20 167M25 173L26 174L25 173M33 181L34 182L33 181M39 186L40 187L39 186M45 190L46 191L45 190M48 192L49 193L48 192M55 196L56 197L55 196M57 197L58 198L57 197M64 200L65 201L64 200M76 204L77 205L76 204z"/>
</svg>
